<?xml version="1.0" encoding="UTF-8"?>
<svg width="205.14" height="224.06" version="1.1" viewBox="0 0 54.275 59.281" xmlns="http://www.w3.org/2000/svg" xmlns:cc="http://creativecommons.org/ns#" xmlns:dc="http://purl.org/dc/elements/1.1/" xmlns:rdf="http://www.w3.org/1999/02/22-rdf-syntax-ns#">
 <metadata>
  <rdf:RDF>
   <cc:Work rdf:about="">
    <dc:format>image/svg+xml</dc:format>
    <dc:type rdf:resource="http://purl.org/dc/dcmitype/StillImage"/>
   </cc:Work>
  </rdf:RDF>
 </metadata>
 <circle cx="27.052" cy="29.116" r="23.295" style="fill-rule:evenodd;fill:#ffffff;stroke-width:.26458"/>
 <path transform="matrix(.26458 0 0 .26458 -.00010697 0)" d="m102.56 0.99805c-14.431 0-88.941 43.015-96.158 55.516-7.2172 12.495-7.2172 98.525 0 111.03 7.2153 12.499 81.724 55.516 96.158 55.516 14.431 0 88.941-43.017 96.158-55.516 7.2172-12.495 7.2172-98.525 0-111.03-7.2153-12.499-81.724-55.516-96.158-55.516zm-31.172 47.697c5.7753 0 10.341 1.5437 13.699 4.6328 3.3578 2.9548 5.1728 6.9841 5.4414 12.088 0.40293 6.5812-0.60586 15.513-3.0234 26.795-2.2833 11.148-6.11 23.908-11.482 38.279-2.149 5.2381-3.2246 9.8711-3.2246 13.9 0 4.0293 1.1425 7.1186 3.4258 9.2676 2.4176 2.0147 5.91 3.0215 10.477 3.0215 3.7607 0 8.3268-2.1493 13.699-6.4473 5.5067-4.2979 10.543-9.9377 15.109-16.922 4.5666-6.9841 7.589-14.17 9.0664-21.557l12.289-60.238h23.975l-21.959 100.53c0 0.1343-0.13567 0.53742-0.4043 1.209-0.26863 0.67155-0.26863 1.3421 0 2.0137 0.80586 0.94017 1.6121 1.4102 2.418 1.4102s1.8127-0.46999 3.0215-1.4102c1.3431-0.94017 2.755-2.0807 4.2324-3.4238 1.4774-1.4774 2.6848-2.6868 3.625-3.627l9.4688 17.729c-1.746 3.7607-5.3053 6.85-10.678 9.2676-5.2381 2.4176-10.61 3.627-16.117 3.627-5.2381 0-9.8042-1.3431-13.699-4.0293-3.7607-2.8205-6.0438-6.1792-6.8496-10.074-10.342 9.4017-20.416 14.104-30.221 14.104-11.282 0-19.742-2.4856-25.383-7.4551s-8.4629-12.021-8.4629-21.154c0-6.7155 1.41-14.168 4.2305-22.361 5.1038-15.446 8.7988-27.4 11.082-35.861 2.2833-8.4615 3.0876-14.976 2.416-19.543-0.1343-1.0745-1.0074-1.6113-2.6191-1.6113-1.746 0-3.626 1.0068-5.6406 3.0215-1.8803 1.8803-3.5577 4.3659-5.0352 7.4551l-9.6719-19.744c1.746-3.7607 5.2385-6.85 10.477-9.2676 5.3724-2.4176 10.812-3.625 16.318-3.625z" fill="#2b3238" stroke-width=".4717" style="paint-order:stroke fill markers"/>
 <path transform="matrix(.26458 0 0 .26458 -.00010697 0)" d="m173.31 36.273v0.005859c0.14637 0.4065 0.29496 0.81214 0.43164 1.2227 1.2057 1.1253-3.198 24.152-20.354 48.139l-14.506 66.406c0 0.1343-0.13567 0.53742-0.4043 1.209-0.26863 0.67155-0.26863 1.3421 0 2.0137 0.80586 0.94017 1.6121 1.4102 2.418 1.4102s1.8127-0.46999 3.0215-1.4102c1.3431-0.94017 2.755-2.0807 4.2324-3.4238 1.4774-1.4774 2.6848-2.6868 3.625-3.627l9.4688 17.729c-1.746 3.7607-5.3053 6.85-10.678 9.2676-5.2381 2.4176-10.61 3.627-16.117 3.627-5.2381 0-9.8042-1.3431-13.699-4.0293-3.7607-2.8205-6.0438-6.1792-6.8496-10.074-10.342 9.4017-20.416 14.104-30.221 14.104-11.282 0-19.742-2.4856-25.383-7.4551s-8.4629-12.021-8.4629-21.154c0-3.2372 0.33676-6.6499 0.99219-10.23-14.237 0.95976-30.01 0.34146-47.506-2.3379-0.67709-2.0458-1.3096-4.0594-1.9219-6.0586 0.71189 16.992 2.3728 31.373 5.0059 35.934 7.2154 12.499 81.724 55.518 96.158 55.518 14.431 0 88.943-43.018 96.16-55.518 7.2173-12.495 7.2173-98.526 0-111.03-2.4314-4.212-12.572-11.906-25.412-20.234zm-49.6 79.096c-13.208 9.4116-29.599 17.211-49.84 21.496-0.70491 2.7042-1.0703 5.2177-1.0703 7.5254 0 4.0293 1.1425 7.1186 3.4258 9.2676 2.4176 2.0147 5.91 3.0215 10.477 3.0215 3.7607 0 8.3268-2.1493 13.699-6.4473 5.5067-4.2979 10.543-9.9377 15.109-16.922 3.8177-5.8388 6.5406-11.821 8.1992-17.941z" fill="#161a1d" stroke-width=".47171" style="paint-order:stroke fill markers"/>
</svg>
