<svg xmlns="http://www.w3.org/2000/svg" width="512" height="512" viewBox="0 0 512 512" version="1.1">
	<path d="M 246.141 4.008 C 216.755 11.824, 144.105 49.857, 88.500 86.536 C 57.359 107.078, 40.590 120.825, 35.689 129.831 C 27.806 144.313, 23.607 189.234, 23.661 258.500 C 23.703 312.926, 25.887 345.817, 31.022 369.341 C 33.429 380.374, 35.908 384.686, 44.652 393.054 C 76.691 423.718, 190.139 489.645, 240 506.575 C 251.478 510.472, 260.391 510.488, 271.500 506.629 C 328.275 486.907, 455.045 411.210, 473.468 386.028 C 479.519 377.758, 482.469 363.970, 485.729 328.726 C 488.194 302.078, 488.169 209.374, 485.690 183 C 482.394 147.928, 479.144 133.231, 472.965 125.456 C 452.287 99.436, 324.863 23.649, 272.500 6.227 C 259.951 2.051, 255.048 1.639, 246.141 4.008 M 172 112.163 C 163.345 113.384, 147.450 118.887, 140.412 123.101 C 134.016 126.929, 126.661 133.822, 124.489 138.021 C 123.090 140.727, 123.403 141.567, 133.770 162.880 C 139.672 175.013, 144.725 184.940, 145 184.941 C 145.275 184.942, 146.986 182.487, 148.803 179.485 C 153.445 171.815, 156.771 168.101, 161.926 164.832 C 166.413 161.987, 171.241 161.234, 173.964 162.957 C 175.981 164.232, 176.535 175.912, 175.059 186.009 C 172.659 202.422, 166.656 223.859, 149.057 278.864 C 139.064 310.095, 137.595 315.994, 135.942 331.500 C 131.795 370.408, 147.880 396.338, 181.558 405.034 C 191.553 407.615, 210.792 409.027, 220.749 407.910 C 238.121 405.962, 256.986 396.950, 274.821 382.079 C 278.298 379.181, 281.274 376.964, 281.435 377.154 C 281.596 377.344, 282.946 380.247, 284.435 383.605 C 289.317 394.612, 301.389 403.873, 315 407.054 C 323.174 408.965, 338.138 408.516, 348.575 406.047 C 365.047 402.150, 382.852 391.491, 388.165 382.346 L 389.829 379.480 379.408 360.066 C 373.676 349.389, 368.782 340.449, 368.534 340.200 C 368.285 339.952, 365.070 342.507, 361.390 345.880 C 353.166 353.415, 346.376 358, 343.439 358 C 342.220 358, 340.194 357.168, 338.938 356.151 C 336.806 354.425, 336.734 354.012, 337.848 349.901 C 338.504 347.481, 346.430 311.750, 355.461 270.500 C 374.582 183.167, 387.711 123.442, 388.490 120.250 L 389.038 118 361.602 118 L 334.166 118 333.035 123.250 C 332.413 126.138, 325.629 159.202, 317.959 196.727 C 310.289 234.252, 303.057 267.777, 301.888 271.227 C 289.914 306.568, 257.618 344.905, 230.637 355.803 C 225.287 357.963, 223.494 358.194, 215.339 357.767 C 197.689 356.844, 189.429 349.762, 187.542 333.935 C 186.563 325.725, 189.020 314.636, 196.278 294.500 C 218.345 233.279, 228.750 186.899, 227.800 154 C 227.447 141.772, 227.144 139.914, 224.581 134.278 C 221.169 126.774, 213.322 118.947, 205.753 115.498 C 196.682 111.365, 185.498 110.260, 172 112.163" stroke="none" fill="black" fill-rule="evenodd"/>
</svg>